<?xml version="1.0" standalone="no"?><!DOCTYPE svg PUBLIC "-//W3C//DTD SVG 1.1//EN" "http://www.w3.org/Graphics/SVG/1.1/DTD/svg11.dtd"><svg t="1556982179695" class="icon" style="" viewBox="0 0 1024 1024" version="1.1" xmlns="http://www.w3.org/2000/svg" p-id="4364" xmlns:xlink="http://www.w3.org/1999/xlink" width="200" height="200"><defs><style type="text/css"></style></defs><path d="M464 828.8l-172.8-83.2c-16-6.4-22.4-25.6-16-41.6l291.2-604.8c6.4-16 25.6-22.4 41.6-16l172.8 83.2c19.2 6.4 25.6 25.6 16 41.6l-291.2 604.8c-6.4 19.2-25.6 25.6-41.6 16zM348.8 704l115.2 54.4 262.4-547.2-115.2-54.4L348.8 704z" fill="#2c2c2c" p-id="4365"></path><path d="M645.28 155.52l57.696 27.712-87.264 181.76-57.696-27.712zM316.8 915.2l-35.2-220.8 230.4 108.8zM736 192l-115.2-54.4c-16-6.4-22.4-25.6-16-41.6l19.2-38.4c6.4-16 25.6-22.4 41.6-16L780.8 96c16 6.4 22.4 25.6 16 41.6l-19.2 38.4c-6.4 16-25.6 22.4-41.6 16zM752 1004.8H169.6c-9.6 0-16-6.4-16-16s6.4-16 16-16h582.4c9.6 0 16 6.4 16 16s-6.4 16-16 16z" fill="#2c2c2c" p-id="4366"></path></svg>